<?xml version="1.0" encoding="UTF-8"?><svg id="b" xmlns="http://www.w3.org/2000/svg" width="272.08" height="112.92" viewBox="0 0 272.08 112.92"><g id="c"><text transform="translate(0 108.02)" fill="#97c6d8" font-family="Alfarn, Alfarn" font-size="32.7" letter-spacing=".06em"><tspan x="0" y="0">SUPERTRAMP</tspan></text><polygon points="136.04 0 165.75 27.41 177.41 64.14 136.04 73.47 94.66 64.14 106.33 27.41 136.04 0" fill="#022f40"/><polygon points="136.04 9.42 159.2 30.79 168.3 59.43 136.04 66.7 103.78 59.43 112.88 30.79 136.04 9.42" fill="#fff" stroke="#022f40" stroke-miterlimit="10" stroke-width=".65"/><polygon points="136.04 21.31 150.94 35.06 156.8 53.49 136.04 58.17 115.28 53.49 121.13 35.06 136.04 21.31" fill="#97c6d8"/><polyline points="136.04 61.16 136.04 58.17 150.94 35.06 156.8 53.49" fill="none" stroke="#fff" stroke-miterlimit="10" stroke-width=".65"/><polyline points="136.24 61.33 136.24 58.34 121.33 35.23 115.48 53.66" fill="none" stroke="#fff" stroke-miterlimit="10" stroke-width=".65"/><line x1="136.04" x2="136.04" y2="78.21" fill="none" stroke="#fff" stroke-miterlimit="10" stroke-width=".65"/></g></svg>